<?xml version="1.0" encoding="UTF-8"?>
<svg width="416.52" height="554.97" enable-background="new 0 0 440 576.261" viewBox="0 0 416.51675 554.96815" xmlns="http://www.w3.org/2000/svg">
 <defs>
  <linearGradient id="ae" x1="-122.41" x2="-103.29" gradientTransform="matrix(-1.1336 -.6187 -.3492 .6916 326.87 44.783)" gradientUnits="userSpaceOnUse">
   <stop stop-color="#f70508" offset="0"/>
   <stop stop-color="#ad0708" offset=".297"/>
   <stop stop-color="#e70062" offset=".4909"/>
   <stop stop-color="#d00058" offset=".6848"/>
   <stop stop-color="#ff17a3" offset=".9553"/>
   <stop stop-color="#f22eff" offset="1"/>
  </linearGradient>
  <linearGradient id="t" x1="-118.64" x2="-93.67" gradientTransform="matrix(-1.1336 -.6187 -.3492 .6916 326.87 44.783)" gradientUnits="userSpaceOnUse">
   <stop stop-color="#f70508" offset="0"/>
   <stop stop-color="#ad0708" offset=".297"/>
   <stop stop-color="#e70062" offset=".4909"/>
   <stop stop-color="#d00058" offset=".6848"/>
   <stop stop-color="#ff17a3" offset=".9553"/>
   <stop stop-color="#f22eff" offset="1"/>
  </linearGradient>
  <linearGradient id="i" x1="-114.72" x2="-85.983" gradientTransform="matrix(-1.1336 -.6187 -.3492 .6916 326.87 44.783)" gradientUnits="userSpaceOnUse">
   <stop stop-color="#f70508" offset="0"/>
   <stop stop-color="#ad0708" offset=".297"/>
   <stop stop-color="#e70062" offset=".4909"/>
   <stop stop-color="#d00058" offset=".6848"/>
   <stop stop-color="#ff17a3" offset=".9553"/>
   <stop stop-color="#f22eff" offset="1"/>
  </linearGradient>
  <linearGradient id="f" x1="-131.18" x2="-93.23" gradientTransform="matrix(-1.1336 -.6187 -.3492 .6916 326.87 44.783)" gradientUnits="userSpaceOnUse">
   <stop stop-color="#f70508" offset="0"/>
   <stop stop-color="#ad0708" offset=".297"/>
   <stop stop-color="#e70062" offset=".4909"/>
   <stop stop-color="#d00058" offset=".6848"/>
   <stop stop-color="#ff17a3" offset=".9553"/>
   <stop stop-color="#f22eff" offset="1"/>
  </linearGradient>
  <linearGradient id="e" x1="-143.62" x2="-117.11" gradientTransform="matrix(-1.1336 -.6187 -.3492 .6916 326.87 44.783)" gradientUnits="userSpaceOnUse">
   <stop stop-color="#f70508" offset="0"/>
   <stop stop-color="#ad0708" offset=".297"/>
   <stop stop-color="#e70062" offset=".4909"/>
   <stop stop-color="#d00058" offset=".6848"/>
   <stop stop-color="#ff17a3" offset=".9553"/>
   <stop stop-color="#f22eff" offset="1"/>
  </linearGradient>
  <linearGradient id="d" x1="-135.84" x2="-79.168" gradientTransform="matrix(-1.1336 -.6187 -.3492 .6916 326.87 44.783)" gradientUnits="userSpaceOnUse">
   <stop stop-color="#f70508" offset="0"/>
   <stop stop-color="#ad0708" offset=".297"/>
   <stop stop-color="#e70062" offset=".4909"/>
   <stop stop-color="#d00058" offset=".6848"/>
   <stop stop-color="#ff17a3" offset=".9553"/>
   <stop stop-color="#f22eff" offset="1"/>
  </linearGradient>
  <linearGradient id="c" x1="-131.39" x2="-91.582" gradientTransform="matrix(-1.1336 -.6187 -.3492 .6916 326.87 44.783)" gradientUnits="userSpaceOnUse">
   <stop stop-color="#f70508" offset="0"/>
   <stop stop-color="#ad0708" offset=".297"/>
   <stop stop-color="#e70062" offset=".4909"/>
   <stop stop-color="#d00058" offset=".6848"/>
   <stop stop-color="#ff17a3" offset=".9553"/>
   <stop stop-color="#f22eff" offset="1"/>
  </linearGradient>
  <linearGradient id="b" x1="-117.85" x2="-108.88" gradientTransform="matrix(-1.1336 -.6187 -.3492 .6916 326.87 44.783)" gradientUnits="userSpaceOnUse">
   <stop stop-color="#f70508" offset="0"/>
   <stop stop-color="#ad0708" offset=".297"/>
   <stop stop-color="#e70062" offset=".4909"/>
   <stop stop-color="#d00058" offset=".6848"/>
   <stop stop-color="#ff17a3" offset=".9553"/>
   <stop stop-color="#f22eff" offset="1"/>
  </linearGradient>
  <linearGradient id="a" x1="-105.96" x2="-52.266" gradientTransform="matrix(-.9853 -.1707 -.1707 .9853 323.56 36.842)" gradientUnits="userSpaceOnUse">
   <stop stop-color="#f70508" offset="0"/>
   <stop stop-color="#ad0708" offset=".297"/>
   <stop stop-color="#e70062" offset=".4909"/>
   <stop stop-color="#d00058" offset=".6848"/>
   <stop stop-color="#ff17a3" offset=".9553"/>
   <stop stop-color="#f22eff" offset="1"/>
  </linearGradient>
  <linearGradient id="ao" x1="49.227" x2="70.133" gradientTransform="matrix(1.1418 -.6033 .3398 .6963 -51.517 28.124)" gradientUnits="userSpaceOnUse">
   <stop stop-color="#f70508" offset="0"/>
   <stop stop-color="#ad0708" offset=".297"/>
   <stop stop-color="#e70062" offset=".4909"/>
   <stop stop-color="#d00058" offset=".6848"/>
   <stop stop-color="#ff17a3" offset=".9553"/>
   <stop stop-color="#f22eff" offset="1"/>
  </linearGradient>
  <linearGradient id="an" x1="52.977" x2="80.696" gradientTransform="matrix(1.1418 -.6033 .3398 .6963 -51.517 28.124)" gradientUnits="userSpaceOnUse">
   <stop stop-color="#f70508" offset="0"/>
   <stop stop-color="#ad0708" offset=".297"/>
   <stop stop-color="#e70062" offset=".4909"/>
   <stop stop-color="#d00058" offset=".6848"/>
   <stop stop-color="#ff17a3" offset=".9553"/>
   <stop stop-color="#f22eff" offset="1"/>
  </linearGradient>
  <linearGradient id="am" x1="56.798" x2="88.443" gradientTransform="matrix(1.1418 -.6033 .3398 .6963 -51.517 28.124)" gradientUnits="userSpaceOnUse">
   <stop stop-color="#f70508" offset="0"/>
   <stop stop-color="#ad0708" offset=".297"/>
   <stop stop-color="#e70062" offset=".4909"/>
   <stop stop-color="#d00058" offset=".6848"/>
   <stop stop-color="#ff17a3" offset=".9553"/>
   <stop stop-color="#f22eff" offset="1"/>
  </linearGradient>
  <linearGradient id="al" x1="39.944" x2="81.228" gradientTransform="matrix(1.1418 -.6033 .3398 .6963 -51.517 28.124)" gradientUnits="userSpaceOnUse">
   <stop stop-color="#f70508" offset="0"/>
   <stop stop-color="#ad0708" offset=".297"/>
   <stop stop-color="#e70062" offset=".4909"/>
   <stop stop-color="#d00058" offset=".6848"/>
   <stop stop-color="#ff17a3" offset=".9553"/>
   <stop stop-color="#f22eff" offset="1"/>
  </linearGradient>
  <linearGradient id="ak" x1="25.985" x2="54.25" gradientTransform="matrix(1.1418 -.6033 .3398 .6963 -51.517 28.124)" gradientUnits="userSpaceOnUse">
   <stop stop-color="#f70508" offset="0"/>
   <stop stop-color="#ad0708" offset=".297"/>
   <stop stop-color="#e70062" offset=".4909"/>
   <stop stop-color="#d00058" offset=".6848"/>
   <stop stop-color="#ff17a3" offset=".9553"/>
   <stop stop-color="#f22eff" offset="1"/>
  </linearGradient>
  <linearGradient id="aj" x1="34.854" x2="95.942" gradientTransform="matrix(1.1418 -.6033 .3398 .6963 -51.517 28.124)" gradientUnits="userSpaceOnUse">
   <stop stop-color="#f70508" offset="0"/>
   <stop stop-color="#ad0708" offset=".297"/>
   <stop stop-color="#e70062" offset=".4909"/>
   <stop stop-color="#d00058" offset=".6848"/>
   <stop stop-color="#ff17a3" offset=".9553"/>
   <stop stop-color="#f22eff" offset="1"/>
  </linearGradient>
  <linearGradient id="ai" x1="38.131" x2="81.228" gradientTransform="matrix(1.1418 -.6033 .3398 .6963 -51.517 28.124)" gradientUnits="userSpaceOnUse">
   <stop stop-color="#f70508" offset="0"/>
   <stop stop-color="#ad0708" offset=".297"/>
   <stop stop-color="#e70062" offset=".4909"/>
   <stop stop-color="#d00058" offset=".6848"/>
   <stop stop-color="#ff17a3" offset=".9553"/>
   <stop stop-color="#f22eff" offset="1"/>
  </linearGradient>
  <linearGradient id="ah" x1="54.251" x2="63.752" gradientTransform="matrix(1.1418 -.6033 .3398 .6963 -51.517 28.124)" gradientUnits="userSpaceOnUse">
   <stop stop-color="#f70508" offset="0"/>
   <stop stop-color="#ad0708" offset=".297"/>
   <stop stop-color="#e70062" offset=".4909"/>
   <stop stop-color="#d00058" offset=".6848"/>
   <stop stop-color="#ff17a3" offset=".9553"/>
   <stop stop-color="#f22eff" offset="1"/>
  </linearGradient>
  <linearGradient id="ag" x1="96.725" x2="152.95" gradientTransform="matrix(.9875 -.1573 .1573 .9875 -48.056 19.93)" gradientUnits="userSpaceOnUse">
   <stop stop-color="#f70508" offset="0"/>
   <stop stop-color="#ad0708" offset=".297"/>
   <stop stop-color="#e70062" offset=".4909"/>
   <stop stop-color="#d00058" offset=".6848"/>
   <stop stop-color="#ff17a3" offset=".9553"/>
   <stop stop-color="#f22eff" offset="1"/>
  </linearGradient>
  <linearGradient id="af" x1="12.093" x2="31.208" gradientTransform="matrix(1.1584 -.5709 .3201 .7055 -96.112 -98.109)" gradientUnits="userSpaceOnUse">
   <stop stop-color="#f70508" offset="0"/>
   <stop stop-color="#ad0708" offset=".297"/>
   <stop stop-color="#e70062" offset=".4909"/>
   <stop stop-color="#d00058" offset=".6848"/>
   <stop stop-color="#ff17a3" offset=".9553"/>
   <stop stop-color="#f22eff" offset="1"/>
  </linearGradient>
  <linearGradient id="ad" x1="15.856" x2="40.831" gradientTransform="matrix(1.1584 -.5709 .3201 .7055 -96.112 -98.109)" gradientUnits="userSpaceOnUse">
   <stop stop-color="#f70508" offset="0"/>
   <stop stop-color="#ad0708" offset=".297"/>
   <stop stop-color="#e70062" offset=".4909"/>
   <stop stop-color="#d00058" offset=".6848"/>
   <stop stop-color="#ff17a3" offset=".9553"/>
   <stop stop-color="#f22eff" offset="1"/>
  </linearGradient>
  <linearGradient id="ac" x1="19.782" x2="48.516" gradientTransform="matrix(1.1584 -.5709 .3201 .7055 -96.112 -98.109)" gradientUnits="userSpaceOnUse">
   <stop stop-color="#f70508" offset="0"/>
   <stop stop-color="#ad0708" offset=".297"/>
   <stop stop-color="#e70062" offset=".4909"/>
   <stop stop-color="#d00058" offset=".6848"/>
   <stop stop-color="#ff17a3" offset=".9553"/>
   <stop stop-color="#f22eff" offset="1"/>
  </linearGradient>
  <linearGradient id="ab" x1="3.3228" x2="41.27" gradientTransform="matrix(1.1584 -.5709 .3201 .7055 -96.112 -98.109)" gradientUnits="userSpaceOnUse">
   <stop stop-color="#f70508" offset="0"/>
   <stop stop-color="#ad0708" offset=".297"/>
   <stop stop-color="#e70062" offset=".4909"/>
   <stop stop-color="#d00058" offset=".6848"/>
   <stop stop-color="#ff17a3" offset=".9553"/>
   <stop stop-color="#f22eff" offset="1"/>
  </linearGradient>
  <linearGradient id="aa" x1="-9.124" x2="17.391" gradientTransform="matrix(1.1584 -.5709 .3201 .7055 -96.112 -98.109)" gradientUnits="userSpaceOnUse">
   <stop stop-color="#f70508" offset="0"/>
   <stop stop-color="#ad0708" offset=".297"/>
   <stop stop-color="#e70062" offset=".4909"/>
   <stop stop-color="#d00058" offset=".6848"/>
   <stop stop-color="#ff17a3" offset=".9553"/>
   <stop stop-color="#f22eff" offset="1"/>
  </linearGradient>
  <linearGradient id="z" x1="-1.3433" x2="55.332" gradientTransform="matrix(1.1584 -.5709 .3201 .7055 -96.112 -98.109)" gradientUnits="userSpaceOnUse">
   <stop stop-color="#f70508" offset="0"/>
   <stop stop-color="#ad0708" offset=".297"/>
   <stop stop-color="#e70062" offset=".4909"/>
   <stop stop-color="#d00058" offset=".6848"/>
   <stop stop-color="#ff17a3" offset=".9553"/>
   <stop stop-color="#f22eff" offset="1"/>
  </linearGradient>
  <linearGradient id="y" x1="3.1064" x2="42.918" gradientTransform="matrix(1.1584 -.5709 .3201 .7055 -96.112 -98.109)" gradientUnits="userSpaceOnUse">
   <stop stop-color="#f70508" offset="0"/>
   <stop stop-color="#ad0708" offset=".297"/>
   <stop stop-color="#e70062" offset=".4909"/>
   <stop stop-color="#d00058" offset=".6848"/>
   <stop stop-color="#ff17a3" offset=".9553"/>
   <stop stop-color="#f22eff" offset="1"/>
  </linearGradient>
  <linearGradient id="x" x1="16.648" x2="25.621" gradientTransform="matrix(1.1584 -.5709 .3201 .7055 -96.112 -98.109)" gradientUnits="userSpaceOnUse">
   <stop stop-color="#f70508" offset="0"/>
   <stop stop-color="#ad0708" offset=".297"/>
   <stop stop-color="#e70062" offset=".4909"/>
   <stop stop-color="#d00058" offset=".6848"/>
   <stop stop-color="#ff17a3" offset=".9553"/>
   <stop stop-color="#f22eff" offset="1"/>
  </linearGradient>
  <linearGradient id="w" x1="138.68" x2="192.38" gradientTransform="matrix(.9916 -.1296 .1296 .9916 -91.762 -105.44)" gradientUnits="userSpaceOnUse">
   <stop stop-color="#f70508" offset="0"/>
   <stop stop-color="#ad0708" offset=".297"/>
   <stop stop-color="#e70062" offset=".4909"/>
   <stop stop-color="#d00058" offset=".6848"/>
   <stop stop-color="#ff17a3" offset=".9553"/>
   <stop stop-color="#f22eff" offset="1"/>
  </linearGradient>
  <linearGradient id="v" x1="207.88" x2="241.2" y1="31.575" y2="69.471" gradientTransform="matrix(1.0568 .1735 -.0186 .9432 -10.294 -31.932)" gradientUnits="userSpaceOnUse">
   <stop stop-color="#f70508" offset="0"/>
   <stop stop-color="#ad0708" offset=".297"/>
   <stop stop-color="#e70062" offset=".4909"/>
   <stop stop-color="#d00058" offset=".6848"/>
   <stop stop-color="#ff17a3" offset=".9553"/>
   <stop stop-color="#f22eff" offset="1"/>
  </linearGradient>
  <linearGradient id="u" x1="148.04" x2="295.07" gradientTransform="matrix(1.0568 .1735 -.0186 .9432 -10.294 -31.932)" gradientUnits="userSpaceOnUse">
   <stop stop-color="#f70508" offset="0"/>
   <stop stop-color="#ad0708" offset=".297"/>
   <stop stop-color="#e70062" offset=".4909"/>
   <stop stop-color="#d00058" offset=".6848"/>
   <stop stop-color="#ff17a3" offset=".9553"/>
   <stop stop-color="#f22eff" offset="1"/>
  </linearGradient>
  <linearGradient id="s" x1="232.45" x2="372.96" gradientTransform="matrix(1.0568 .1735 -.0186 .9432 -10.294 -31.932)" gradientUnits="userSpaceOnUse">
   <stop stop-color="#f70508" offset="0"/>
   <stop stop-color="#ad0708" offset=".297"/>
   <stop stop-color="#e70062" offset=".4909"/>
   <stop stop-color="#d00058" offset=".6848"/>
   <stop stop-color="#ff17a3" offset=".9553"/>
   <stop stop-color="#f22eff" offset="1"/>
  </linearGradient>
  <linearGradient id="r" x1="201.39" x2="275.63" gradientTransform="matrix(1.0568 .1735 -.0186 .9432 -10.294 -31.932)" gradientUnits="userSpaceOnUse">
   <stop stop-color="#f70508" offset="0"/>
   <stop stop-color="#ad0708" offset=".297"/>
   <stop stop-color="#e70062" offset=".4909"/>
   <stop stop-color="#d00058" offset=".6848"/>
   <stop stop-color="#ff17a3" offset=".9553"/>
   <stop stop-color="#f22eff" offset="1"/>
  </linearGradient>
  <linearGradient id="q" x1="294.26" x2="414.62" gradientTransform="matrix(1.0568 .1735 -.0186 .9432 -10.294 -31.932)" gradientUnits="userSpaceOnUse">
   <stop stop-color="#f70508" offset="0"/>
   <stop stop-color="#ad0708" offset=".297"/>
   <stop stop-color="#e70062" offset=".4909"/>
   <stop stop-color="#d00058" offset=".6848"/>
   <stop stop-color="#ff17a3" offset=".9553"/>
   <stop stop-color="#f22eff" offset="1"/>
  </linearGradient>
  <linearGradient id="p" x1="277.4" x2="372.01" y1="129.19" y2="144.72" gradientUnits="userSpaceOnUse">
   <stop stop-color="#f70508" offset="0"/>
   <stop stop-color="#ad0708" offset=".297"/>
   <stop stop-color="#e70062" offset=".4909"/>
   <stop stop-color="#d00058" offset=".6848"/>
   <stop stop-color="#ff17a3" offset=".9553"/>
   <stop stop-color="#f22eff" offset="1"/>
  </linearGradient>
  <linearGradient id="o" x1="267.17" x2="299.33" gradientTransform="matrix(1.0568 .1735 -.0186 .9432 -10.294 -31.932)" gradientUnits="userSpaceOnUse">
   <stop stop-color="#f70508" offset="0"/>
   <stop stop-color="#ad0708" offset=".297"/>
   <stop stop-color="#e70062" offset=".4909"/>
   <stop stop-color="#d00058" offset=".6848"/>
   <stop stop-color="#ff17a3" offset=".9553"/>
   <stop stop-color="#f22eff" offset="1"/>
  </linearGradient>
  <linearGradient id="n" x1="272.94" x2="315.58" gradientTransform="matrix(1.0568 .1735 -.0186 .9432 -10.294 -31.932)" gradientUnits="userSpaceOnUse">
   <stop stop-color="#f70508" offset="0"/>
   <stop stop-color="#ad0708" offset=".297"/>
   <stop stop-color="#e70062" offset=".4909"/>
   <stop stop-color="#d00058" offset=".6848"/>
   <stop stop-color="#ff17a3" offset=".9553"/>
   <stop stop-color="#f22eff" offset="1"/>
  </linearGradient>
  <linearGradient id="m" x1="278.82" x2="327.5" gradientTransform="matrix(1.0568 .1735 -.0186 .9432 -10.294 -31.932)" gradientUnits="userSpaceOnUse">
   <stop stop-color="#f70508" offset="0"/>
   <stop stop-color="#ad0708" offset=".297"/>
   <stop stop-color="#e70062" offset=".4909"/>
   <stop stop-color="#d00058" offset=".6848"/>
   <stop stop-color="#ff17a3" offset=".9553"/>
   <stop stop-color="#f22eff" offset="1"/>
  </linearGradient>
  <linearGradient id="l" x1="252.89" x2="316.4" gradientTransform="matrix(1.0568 .1735 -.0186 .9432 -10.294 -31.932)" gradientUnits="userSpaceOnUse">
   <stop stop-color="#f70508" offset="0"/>
   <stop stop-color="#ad0708" offset=".297"/>
   <stop stop-color="#e70062" offset=".4909"/>
   <stop stop-color="#d00058" offset=".6848"/>
   <stop stop-color="#ff17a3" offset=".9553"/>
   <stop stop-color="#f22eff" offset="1"/>
  </linearGradient>
  <linearGradient id="k" x1="231.41" x2="274.9" gradientTransform="matrix(1.0568 .1735 -.0186 .9432 -10.294 -31.932)" gradientUnits="userSpaceOnUse">
   <stop stop-color="#f70508" offset="0"/>
   <stop stop-color="#ad0708" offset=".297"/>
   <stop stop-color="#e70062" offset=".4909"/>
   <stop stop-color="#d00058" offset=".6848"/>
   <stop stop-color="#ff17a3" offset=".9553"/>
   <stop stop-color="#f22eff" offset="1"/>
  </linearGradient>
  <linearGradient id="j" x1="245.06" x2="339.03" gradientTransform="matrix(1.0568 .1735 -.0186 .9432 -10.294 -31.932)" gradientUnits="userSpaceOnUse">
   <stop stop-color="#f70508" offset="0"/>
   <stop stop-color="#ad0708" offset=".297"/>
   <stop stop-color="#e70062" offset=".4909"/>
   <stop stop-color="#d00058" offset=".6848"/>
   <stop stop-color="#ff17a3" offset=".9553"/>
   <stop stop-color="#f22eff" offset="1"/>
  </linearGradient>
  <linearGradient id="h" x1="250.1" x2="316.4" gradientTransform="matrix(1.0568 .1735 -.0186 .9432 -10.294 -31.932)" gradientUnits="userSpaceOnUse">
   <stop stop-color="#f70508" offset="0"/>
   <stop stop-color="#ad0708" offset=".297"/>
   <stop stop-color="#e70062" offset=".4909"/>
   <stop stop-color="#d00058" offset=".6848"/>
   <stop stop-color="#ff17a3" offset=".9553"/>
   <stop stop-color="#f22eff" offset="1"/>
  </linearGradient>
  <linearGradient id="g" x1="274.9" x2="289.51" gradientTransform="matrix(1.0568 .1735 -.0186 .9432 -10.294 -31.932)" gradientUnits="userSpaceOnUse">
   <stop stop-color="#f70508" offset="0"/>
   <stop stop-color="#ad0708" offset=".297"/>
   <stop stop-color="#e70062" offset=".4909"/>
   <stop stop-color="#d00058" offset=".6848"/>
   <stop stop-color="#ff17a3" offset=".9553"/>
   <stop stop-color="#f22eff" offset="1"/>
  </linearGradient>
 </defs>
 <g transform="translate(-8.865 -21.293)">
  <path d="m239.51,332.87c0,0 4.133-19.859 13.073-22.315l-.498,4.603 8.801-7.72-.198,4.181 7.964-4.199 .588,4.629 6.357-6.226-.659,4.438 5.828-2.751-.54,3.1 7.088-2.182-2.846,4.004 6.146-2.419-1.646,2.321 5.727-.269-1.484,2.092 4.96.584 1.426.167-1.548.622 3.623,1.523-.908,1.281 2.824.699 5.349,2.605c0,0-6.745,3.262-9.75,7.104l-3.003,3.842 2.463-.742-5.299,5.125-1.008,2.979-4.705,1.169 1.117,1.154-4.995,1.967 .39,2.963-4.49.477 .846,2.704-4.529-1.026 1.148,2.283-6.707-1.082 .857,3.08-6.545-.917 .079,3.007-10.921-3.61 .643,2.493c0,0-16.353-8.421-14.628-18.776l-.39-2.962z" fill="#055f00" stroke="#769f00"/>
  <path d="m231.04 335.45s17.305-3.319 33.203-18.693l-8.172 8.128s18.346-1.497 23.166-8.473c0 0-4.429 4.438-6.152 5.825l21.428-0.03-28.767 2.441 11.183 5.951-14.902-5.652-11.542 3.911 12.347 4.963-13.851-3.104s-18.376 5.867-20.984 9.021l3.043-4.288z" fill="#055f00" stroke="#769f00"/>
  <path d="m283.247,271.54c0,0 13.193.026 15.986-7.341l-2.994-.404 6.119-6.279-2.686-.593 3.766-6.191-2.861-1.361 4.832-4.416-2.912-.237 2.551-4.589-2.043-.097 2.361-5.793-2.938,1.75 2.385-4.928-1.701,1.014 .957-4.957-1.534.917 .313-4.443 .088-1.277-.608,1.239-.469-3.445-.942.56-.053-2.599-.92-5.149c0,0-3.004,5.298-5.858,7.22l-2.856,1.922 .811-2.018-3.988,3.693-2.033.335-1.389,3.898-.582-1.188-1.938,4.005-1.83-.882-.92,3.835-1.604-1.235 .029,4.147-1.293-1.421-.236,6.06-1.84-1.315-.318,5.89-1.9-.621 .791,10.208-1.496-1.018c0,0 3.101,15.834 9.924,16.224l1.829.88z" fill="#055f00" stroke="#769f00"/>
  <path d="m280.44 278.48s4.492-14.518 16.455-25.596l-6.293 5.652s3.477-15.758 8.576-18.695c0 0-3.432 3.058-4.551 4.31l2.969-18.723-5.512 24.696-2.246-10.865 1.545 14.06-4.076 9.373-1.456-11.701 0.068 12.676s-6.261 14.984-8.626 16.686l3.147-1.873z" fill="#055f00" stroke="#769f00"/>
  <path d="m318.757,265.081c0,0 14.684,3.886 21.096-2.013l-3.152-1.248 9.631-3.937-2.727-1.325 6.971-4.544-2.576-2.081 7.361-2.614-3.137-1.068 4.898-3.438-2.232-.688 5.229-4.592-4.059.739 4.864-3.798-2.349.426 3.289-4.24-2.117.387 2.338-3.962 .672-1.139-1.233.954 1.022-3.283-1.299.237 1.104-2.387 1.286-4.967c0,0-5.72,3.953-9.764,4.87l-4.042.917 1.809-1.603-6.096,2.2-2.416-.288-3.296,3.148-.113-1.255-3.954,3.086-1.641-1.341-2.747,3.231-1.231-1.598-1.826,3.792-.804-1.675-2.979,5.458-1.461-1.738-2.994,5.278-1.839-1.121-3.692,9.541-1.211-1.367c0,0-3.645,15.351 3.778,17.704l1.639,1.342z" fill="#055f00" stroke="#769f00"/>
  <path d="m312.52 270.58s11.513-11.925 29.803-18.527l-9.543 3.313s10.937-13.356 17.934-14.542c0 0-5.194 1.786-7.003 2.6l11.702-16.208-17.21 20.911 2.371-10.565-4.584 13.274-8.742 7.356 3.623-11.099-5.606 11.58s-13.69 11.835-17.085 12.695l4.34-0.788z" fill="#055f00" stroke="#769f00"/>
  <path d="m322.2 313.47c3.221-4.484-3.881-7.01-6.746-5.914-7.762 2.968-7.867 14.402-3.96 20.823 6.988 11.488 21.979 11.03 30.944 2.838 13.16-12.022 12.176-34.312 1.174-47.566-20.527-24.735-62.53-0.755-57.211-4.326-19.406 10.346-48.569 25.353-60.102 80.921l-5.057-14.483c17.815-53.504 48.462-64.304 68.899-71.85-5.686 2.796 38.729-15.107 56.255 12.304 9.392 14.69 7.812 36.936-6.62 47.02-9.836 6.87-24.757 5.224-30.371-7.15-3.138-6.916-1.722-18.243 6.317-20.101 2.968-0.685 9.724 2.815 6.013 6.813" fill="#055f00" stroke="#769f00"/>
  <path d="m342.82 322.63s-108.67 103.12-131.47 209.27l-10.349-2.045s8.416-55.846 60.942-126.33c52.528-70.485 76.188-88.653 76.188-88.653l4.69 7.758z" fill="#055f00" stroke="#769f00"/>
  <path d="m184.242,513.592c0,0-4.459-27.146-17.562-31.3l.351,6.248-12.447-11.23-.059,5.651-11.499-6.408-1.271,6.182-8.934-8.987 .602,6.041-8.443-4.255 .539,4.227-10.363-3.607 3.894,5.665-8.947-3.84 2.254,3.281-8.503-.9 2.033,2.958-7.436.319-2.136.092 2.252.983-5.526,1.711 1.246,1.813-4.267.676-8.186,3.005c0,0 9.765,5.032 13.911,10.491l4.145,5.459-3.607-1.232 7.454,7.405 1.247,4.109 6.906,2.019-1.763,1.45 7.269,3.121-.832,3.954 6.646,1.065-1.493,3.564 6.833-.956-1.904,2.967 10.076-.825-1.539,4.069 9.824-.617-.375,4.043 16.569-3.835-1.169,3.298c0,0 25.065-9.803 23.38-23.92l.83-3.954z" fill="#055f00" stroke="#769f00"/>
  <path d="m196.64 517.86s-25.481-6.104-47.839-28.317l11.471 11.723s-27.184-3.745-33.766-13.601c0 0 6.216 6.399 8.664 8.43l-31.901-2.061 42.621 5.999-17.157 6.967 22.669-6.212 16.852 6.357-18.806 5.523 20.887-2.878s26.858 9.638 30.472 14.134l-4.167-6.064z" fill="#055f00" stroke="#769f00"/>
  <path d="m124.357,426.836c0,0-19.646-1.209-23.175-11.397l4.492-.264-8.575-9.037 4.048-.545-5.079-8.697 4.378-1.564-6.819-6.405 4.356-.046-3.407-6.424 3.052.063-3.023-8.028 4.225,2.637-3.13-6.865 2.447,1.526-1.004-6.77 2.207,1.38-.086-6.017-.023-1.729 .8,1.728 .992-4.599 1.353.844 .303-3.496 1.808-6.854c0,0 4.021,7.422 8.107,10.28l4.088,2.858-1.035-2.795 5.622,5.352 2.999.643 1.738,5.384 .966-1.546 2.543,5.578 2.799-1.016 1.043,5.255 2.492-1.513-.396,5.586 2.045-1.793-.166,8.187 2.853-1.599-.029,7.967 2.882-.657-2.048,13.678 2.313-1.23c0,0-5.968,21.042-16.159,20.925l-2.797,1.015z" fill="#055f00" stroke="#769f00"/>
  <path d="m127.94 436.44s-5.449-19.984-22.316-36.039l8.886 8.209s-3.831-21.559-11.172-25.996c0 0 4.848 4.444 6.407 6.235l-2.823-25.506 6.097 33.794 4.271-14.428-3.496 18.8 5.269 13.012 3.164-15.628-1.181 17.072s8.041 20.78 11.417 23.295l-4.523-2.82z" fill="#055f00" stroke="#769f00"/>
  <path d="m72.037 414.78s-22.193 3.853-31.236-4.7l4.801-1.385-14.003-6.211 4.171-1.529-9.99-6.779 4.014-2.562-10.737-4.215 4.762-1.144-7-5.096 3.382-0.716-7.392-6.679 5.98 1.377-6.92-5.576 3.459 0.796-4.535-6.022 3.122 0.72-3.144-5.559-0.903-1.597 1.756 1.4-1.243-4.519 1.913 0.441-1.439-3.32-1.49-6.814s8.18 5.865 14.121 7.482l5.94 1.617-2.557-2.332 8.89 3.539 3.62-0.16 4.64 4.553 0.275-1.681 5.625 4.53 2.558-1.65 3.813 4.613 1.968-2.038 2.397 5.282 1.339-2.182 3.97 7.636 2.322-2.204 4.008 7.394 2.834-1.337 4.684 13.203 1.918-1.728s4.118 21.026-7.135 23.497l-2.558 1.655z" fill="#055f00" stroke="#769f00"/>
  <path d="m80.846 422.79s-16.123-17.152-42.791-27.772l13.925 5.363s-15.144-19.026-25.459-21.282c0 0 7.58 2.896 10.203 4.162l-16.039-22.941 23.838 29.798-2.627-14.46 5.694 18.318 12.387 10.734-4.449-15.294 7.36 16.131s19.373 17.236 24.355 18.716l-6.397-1.473z" fill="#055f00" stroke="#769f00"/>
  <path d="m63.526,478.792c-5.182-5.735 5.175-9.814 9.534-8.612 11.812,3.26 12.954,18.656 7.691,27.679-9.414,16.144-31.771,16.954-45.827,6.771-20.626-14.946-21.082-45.069-5.845-63.976 28.432-35.281 93.031-6.971 84.804-11.274 29.783,12.092 74.492,29.532 96.451,103.302l-8.763,19.037c-12.431-75.958-54.57-98.925-82.58-114.694 7.616,5.313-52.874-30.957-85.549.436-17.51,16.822-20.876,46.761-2.31,64.2 12.651,11.883 34.931,13.913 46.315-.907 6.364-8.283 7.182-23.699-4.121-28.43-4.171-1.746-14.961.986-10.548,7.334" fill="#055f00" stroke="#769f00"/>
  <path d="m228.646,525.795c0,0 6.166-26.812 19.504-30.127l-.744,6.213 13.131-10.421-.297,5.644 11.881-5.669 .877,6.249 9.484-8.405-.984,5.992 8.695-3.714-.805,4.185 10.572-2.945-4.244,5.406 9.17-3.267-2.457,3.134 8.543-.361-2.215,2.823 7.4.789 2.127.226-2.311.84 5.406,2.057-1.355,1.729 4.215.944 7.979,3.517c0,0-10.064,4.404-14.547,9.591l-4.48,5.187 3.676-1.002-7.906,6.919-1.502,4.022-7.02,1.578 1.666,1.559-7.451,2.654 .58,4.001-6.699.643 1.264,3.651-6.758-1.386 1.713,3.082-10.006-1.461 1.281,4.158-9.766-1.237 .119,4.059-16.293-4.873 .959,3.365c0,0-24.396-11.368-21.823-25.35l-.579-3.999z" fill="#055f00" stroke="#769f00"/>
  <path d="m216 529.27s25.816-4.48 49.533-25.237l-12.189 10.974s27.367-2.021 34.559-11.438c0 0-6.605 5.992-9.178 7.864l31.967-0.041-42.914 3.296 16.684 8.035-22.232-7.632-17.219 5.28 18.418 6.7-20.662-4.191s-27.416 7.922-31.305 12.18l4.538-5.79z" fill="#055f00" stroke="#769f00"/>
  <path d="m293.895,442.996c0,0 19.684.035 23.85-9.91l-4.467-.547 9.129-8.477-4.008-.801 5.619-8.358-4.27-1.838 7.209-5.962-4.344-.32 3.805-6.195-3.049-.131 3.523-7.821-4.383,2.363 3.559-6.653-2.539,1.369 1.43-6.692-2.289,1.238 .467-5.999 .131-1.725-.906,1.673-.699-4.651-1.406.756-.08-3.509-1.371-6.952c0,0-4.48,7.152-8.74,9.747l-4.26,2.595 1.209-2.725-5.949,4.985-3.033.452-2.074,5.263-.867-1.604-2.891,5.407-2.729-1.19-1.373,5.178-2.393-1.667 .043,5.6-1.928-1.919-.354,8.181-2.744-1.775-.477,7.952-2.834-.838 1.182,13.781-2.234-1.374c0,0 4.627,21.377 14.805,21.903l2.73,1.19z" fill="#055f00" stroke="#769f00"/>
  <path d="m289.71 452.36s6.701-19.601 24.547-34.557l-9.387 7.631s5.188-21.273 12.793-25.239c0 0-5.119 4.129-6.789 5.819l4.43-25.277-8.221 33.342-3.352-14.669 2.303 18.982-6.08 12.653-2.172-15.797 0.102 17.113s-9.338 20.229-12.867 22.526l4.693-2.527z" fill="#055f00" stroke="#769f00"/>
  <path d="m346.87 434.28s21.904 5.247 31.471-2.717l-4.705-1.686 14.369-5.313-4.066-1.79 10.398-6.134-3.844-2.811 10.98-3.528-4.68-1.442 7.309-4.643-3.33-0.928 7.799-6.199-6.055 0.997 7.258-5.128-3.502 0.575 4.906-5.725-3.16 0.522 3.488-5.349 1.002-1.537-1.84 1.287 1.525-4.432-1.938 0.319 1.646-3.223 1.918-6.706s-8.533 5.337-14.564 6.575l-6.031 1.237 2.699-2.164-9.096 2.97-3.602-0.388-4.918 4.25-0.17-1.694-5.898 4.166-2.447-1.811-4.098 4.363-1.838-2.157-2.725 5.119-1.199-2.261-4.445 7.369-2.178-2.347-4.467 7.125-2.744-1.513-5.508 12.881-1.807-1.845s-5.438 20.724 5.637 23.901l2.45 1.815z" fill="#055f00" stroke="#769f00"/>
  <path d="m337.57 441.7s17.174-16.1 44.459-25.013l-14.236 4.473s16.316-18.031 26.754-19.632c0 0-7.748 2.411-10.445 3.51l17.457-21.883-25.674 28.231 3.535-14.264-6.838 17.922-13.041 9.931 5.404-14.983-8.363 15.634s-20.424 15.979-25.488 17.14l6.476-1.066z" fill="#055f00" stroke="#769f00"/>
  <path d="m352.01 499.6c4.807-6.055-5.789-9.463-10.063-7.984-11.58 4.007-11.738 19.444-5.908 28.112 10.426 15.51 32.789 14.892 46.164 3.832 19.631-16.231 18.164-46.323 1.752-64.218-30.625-33.394-93.285-1.02-85.352-5.841-28.949 13.968-72.457 34.228-89.66 109.25l-7.545-19.553c26.576-72.234 72.298-86.814 102.79-97.001-8.482 3.774 57.775-20.396 83.922 16.61 14.012 19.832 11.652 49.865-9.877 63.479-14.672 9.275-36.932 7.053-45.309-9.653-4.68-9.337-2.568-24.63 9.426-27.137 4.426-0.925 14.504 3.801 8.971 9.198" fill="#055f00" stroke="#769f00"/>
  <path d="m160.629,306.251c0,0-7.533-18.834-16.765-19.694l1.293,4.445-10.012-6.066 .925,4.083-8.575-2.746 .229,4.66-7.346-5.021 1.423,4.256-6.219-1.693 1.073,2.958-7.359-.912 3.5,3.447-6.474-1.311 2.026,1.997-5.686.734 1.827,1.801-4.782,1.439-1.375.414 1.632.343-3.302,2.133 1.118,1.102-2.659,1.182-4.813,3.498c0,0 7.211,2.035 10.839,5.295l3.627,3.259-2.554-.301 6.111,4.122 1.512,2.759 4.836.33-.899,1.331 5.262,1.065 .133,2.986 4.504-.313-.361,2.81 4.28-1.801-.733,2.449 6.417-2.235-.307,3.183 6.285-2.044 .446,2.975 10.125-5.461-.198,2.568c0,0 14.634-11.144 11.129-21.04l-.133-2.986z" fill="#055f00" stroke="#769f00"/>
  <path d="m169.42 307.31s-17.619-0.25-35.954-12.616l9.464 6.578s-18.326 1.725-24.288-4.303c0 0 5.134 3.599 7.074 4.662l-21.105 3.707 28.751-2.612-9.974 7.811 13.688-8.165 12.047 1.84-11.292 7.038 13.096-5.472s19.119 2.573 22.236 5.226l-3.743-3.694z" fill="#055f00" stroke="#769f00"/>
  <path d="m106.867,253.487c0,0-12.987,2.327-17.021-4.44l2.877-.92-7.12-5.116 2.541-1.053-4.788-5.439 2.581-1.839-5.528-3.506 2.826-.741-3.312-4.074 1.994-.451-3.334-5.293 3.197,1.211-3.208-4.438 1.852.703-1.806-4.715 1.67.636-1.083-4.321-.309-1.242 .815,1.114-.139-3.474 1.025.387-.401-2.569 .007-5.23c0,0 3.882,4.692 7.028,6.087l3.147,1.394-1.15-1.846 4.571,2.941 2.061-.025 2.047,3.597 .367-1.271 2.605,3.605 1.649-1.188 1.575,3.616 1.363-1.495 .694,4.089 1.026-1.626 1.29,5.926 1.582-1.615 1.341,5.744 1.763-.942 1.001,10.189 1.295-1.263c0,0-.292,16.133-6.943,17.705l-1.648,1.188z" fill="#055f00" stroke="#769f00"/>
  <path d="m110.84 259.83s-6.954-13.512-20.666-22.334l7.183 4.469s-6.171-14.911-11.705-16.914c0 0 3.912 2.412 5.232 3.45l-6.188-17.919 9.734 23.358 0.317-11.091 0.931 14.114 5.648 8.519-0.607-11.775 2.144 12.492s8.777 13.664 11.403 14.926l-3.426-1.295z" fill="#055f00" stroke="#769f00"/>
  <path d="m70.774,253.319c0,0-13.781,6.387-21.124,1.697l2.887-1.778-10.169-2.197 2.453-1.779-7.656-3.26 2.174-2.499-7.705-1.29 2.902-1.599-5.423-2.532 2.079-1.065-5.95-3.609 4.125.02-5.452-2.893 2.387.01-3.978-3.602 2.152.012-2.993-3.493-.86-1.004 1.38.724-1.579-3.055 1.32.008-1.503-2.158-2.133-4.667c0,0 6.322,2.896 10.463,3.093l4.14.197-2.061-1.262 6.386,1.102 2.329-.703 3.795,2.524-.107-1.255 4.432,2.349 1.382-1.606 3.268,2.703 .935-1.787 2.459,3.414 .5-1.789 3.886,4.855 1.135-1.967 3.869,4.676 1.615-1.424 5.3,8.75 .954-1.557c0,0 6.266,14.479-.633,18.092l-1.381,1.604z" fill="#055f00" stroke="#769f00"/>
  <path d="m77.87 257.65s-13.416-9.735-32.577-13.047l9.975 1.599s-13.098-11.245-20.195-11.192c0 0 5.426 0.853 7.349 1.339l-14.35-13.92 20.593 17.59-4.177-9.99 6.828 12.273 9.891 5.719-5.502-10.297 7.54 10.425s15.544 9.267 19.037 9.521l-4.412-0.02z" fill="#055f00" stroke="#769f00"/>
  <path d="m76.158,300.823c-4.352-3.288 1.69-7.914 4.733-7.758 8.239.427 11.609,11.335 9.725,18.69-3.371,13.164-17.775,17.388-28.658,12.339-15.97-7.413-21.405-29.042-14.718-45.146 12.478-30.048 59.333-20.163 53.248-21.925 21.438,3.866 53.5,9.156 80.372,58.734l-2.454,15.144c-21.046-52.706-52.379-62.398-73.292-69.201 5.86,2.59-39.681-13.699-55.58,14.236-8.522,14.971-5.605,37.09 9.45,46.633 10.256,6.504 25.098,4.341 29.975-8.189 2.728-7.006.63-18.245-7.53-19.814-3.012-.579-9.565,3.146-5.611,7" fill="#055f00" stroke="#769f00"/>
  <path d="m389.13 302.89s-14.934 4.854-34.385-5.337-13.518-1.849-17.782-14.258c-4.267-12.409-3.297-22.024 6.554-23.464s13.932-4.413 21.922-0.021 19.443 9.844 19.443 9.844 11.277 5.63 12.873 11.399 3.354 11.212 0.082 13.326-7.018 9.277-8.707 8.511z" fill="#bf001b" stroke="#ed1fff" stroke-width=".2753"/>
  <path d="m369.81 283.24s14.063 6.601 13.578-1.296-22.066-13.739-21.771-9.878c0 0 9.523 0.519 14.475 4.228s4.455 5.969 2.006 6.612-8.288 0.334-8.288 0.334z" fill="url(#ae)" stroke="#ed1fff" stroke-width=".2753"/>
  <path d="m352.05 263.7s-4.477 3.976 3.258 8.655 9.354 10.236 9.354 10.236 1.391 3.996 11.684 3.986c0 0-8.008-1.598-12.805-10.493-4.794-8.895 2.765-3.441-11.491-12.384z" fill="url(#t)" stroke="#ed1fff" stroke-width=".2753"/>
  <path d="m368.78 290.31s-11.576 3.082-19.295-5.976-3.877-5.707-9.807-11.906 5.771-6.636 8.43-6.118-6.258 5.934 0.16 11.33 4.876 9.377 20.512 12.67z" fill="url(#i)" stroke="#ed1fff" stroke-width=".2753"/>
  <path d="m375.324,293.573c0,0 12.186.267 15.34-2.981s6.115-5.704 3.959-8.438-4.211-3.226-4.211-3.226 4.094-2.089-.441-4.441-17.303-7.704-17.52-8.678c-.215-.976-4.748-4.641-13.15-4.358s-7.848,2.842-8.061,3.316c-.213.476-2.205-3.582 8.955-1.888s23.463,13.276 23.463,13.276 2.629,1.339 5.428,4.948-3.197,8.639-5.326,9.719-8.436,2.751-8.436,2.751z" fill="url(#f)" stroke="#ed1fff" stroke-width=".2753"/>
  <path d="m371.9 291s10.139 9.423 19.734 5.737 5.107-8.394 5.107-8.394 11.998 7.82 9.426 10.601-15.432 2.648-16.701 2.802c-1.27 0.155-16.141-3.667-17.566-10.746z" fill="url(#e)" stroke="#ed1fff" stroke-width=".2753"/>
  <path d="m341.25 289.66s-8.715-4.521-7.416-10.52-3.129-11.763-3.129-11.763-2.753-5.622 7.533-8.515 9.754-7.813 16.322-5.563 17.314 6.979 19.967 9.06 12.324 7.93 18.941 9.616 6.504 13.467 6.504 13.467 1.348 7.933-2.127-0.369-5.607-11.535-18.361-17.14c-12.752-5.603-17.645-11.186-25.84-8.325-8.193 2.861-18.451 5.225-15.35 13.65 3.106 8.428 6.853 17.731 2.956 16.402z" fill="url(#d)" stroke="#ed1fff" stroke-width=".2753"/>
  <path d="m385.12 301.82s1.271 7.448-4.65 7.246-24.463-4.519-26.941-7.692-7.604-3.448-12.023-6.33-4.364-8.313-4.364-8.313 2.599 3.417 12.224 7.199l9.627 3.781s19.616 9.196 26.127 4.109z" fill="url(#c)" stroke="#ed1fff" stroke-width=".2753"/>
  <path d="m366.11 278.88s11.357 5.614 12.297 1.175c0 0-6.427 0.173-12.297-1.175" fill="url(#b)" stroke="#ed1fff" stroke-width=".2753"/>
  <path d="m331.52 268.17s-9.168 34.895-3.862 45.797c0 0 6.778 6.28 13.426-22.358 0 0-6.562-5.054-6.733-9.706s1.092-0.584-2.831-13.733z" fill="#bf001b"/>
  <path d="m388.25 301.5s-23.66 20.278-31.566 19.64-7.617 4.995 4.395 3.597 43.873-26.041 43.873-26.041l-7.949 2.301-8.753 0.503z" fill="#bf001b"/>
  <path d="m384.98 303.06s-20.535 27.833-36.914 21.896-24.757-7.186-12.055-39.229c0 0 3.36 6.174 11.826 11.197 8.463 5.027 34.469 13.505 37.143 6.136z" fill="url(#a)"/>
  <path d="m373.92 325.6" fill="none" stroke="#055f00" stroke-width="1.1236"/>
  <path d="m373.58 320.56s-4.805-3.506-15.229 0.466c0 0-7.898 1.875-10.539 0.953 0 0 7.336-1.275 7.777-4.055s-4.59-6.812-0.875-10.75c0 0-5.307 3.698-10.125 2.947s-13.895 0.563-10.887 7.034c0 0-6.007-6.161-4.269-10.559s-7.185-7.092-7.185-7.092 3.566 3.168 1.396 8.943c-2.172 5.776 4.279 12.989 4.279 12.989l17.703 6.992s13.82-1.932 17.471-2.932c4.152-1.136 14.473-2.718 15.387-1.687l-4.904-3.249z" fill="#055f00"/>
  <path d="m116.66 195.03s88.817 151.28 88.542 289.23l11.111-0.502s3.831-71.857-34.481-170.92c-38.313-99.065-58.608-126.62-58.608-126.62l-6.564 8.811z" fill="#055f00" stroke="#769f00"/>
  <path d="m69.115 167.66s15.619 6.542 36.099-6.017 14.188-2.047 18.767-17.786 3.643-28.035-6.674-30.1c-10.318-2.065-14.571-5.956-22.983-0.534s-20.473 12.114-20.473 12.114-11.872 6.927-13.595 14.251c-1.722 7.326-3.611 14.236-0.2 17.007s7.28 12.005 9.059 11.065z" fill="#bf001b" stroke="#ed1fff" stroke-width=".3185"/>
  <path d="m89.538,143.025c0,0-14.803,8.1-14.226-1.967 .575-10.067 23.253-17.027 22.911-12.104 0,0-9.99.443-15.212,5.062s-4.723,7.515-2.16,8.394 8.687.615 8.687.615z" fill="url(#ao)" stroke="#ed1fff" stroke-width=".3185"/>
  <path d="m108.33 118.5s4.661 5.177-3.489 10.972-9.893 12.849-9.893 12.849-1.493 5.067-12.286 4.819c0 0 8.411-1.855 13.514-13.099s-2.87-4.457 12.154-15.541z" fill="url(#an)" stroke="#ed1fff" stroke-width=".3185"/>
  <path d="m90.558 152.08s12.114 4.202 20.283-7.182 4.115-7.194 10.384-14.969c6.269-7.776-5.995-8.603-8.787-8.003s6.512 7.717-0.263 14.457-5.194 11.855-21.617 15.697z" fill="url(#am)" stroke="#ed1fff" stroke-width=".3185"/>
  <path d="m83.671 156.09s-12.78 0.059-16.059-4.16-6.367-7.422-4.081-10.862 4.442-4.021 4.442-4.021-4.276-2.761 0.501-5.658 18.208-9.433 18.442-10.672 5.019-5.813 13.826-5.259 8.206 3.808 8.423 4.42 2.343-4.521-9.373-2.617-24.712 16.405-24.712 16.405-2.768 1.648-5.734 6.191 3.28 11.098 5.502 12.526 8.823 3.707 8.823 3.707z" fill="url(#al)" stroke="#ed1fff" stroke-width=".3185"/>
  <path d="m87.289 152.88s-10.712 11.794-20.742 6.866-5.285-10.829-5.285-10.829-12.648 9.703-9.972 13.311c2.675 3.607 16.158 3.737 17.488 3.963s16.956-4.309 18.511-13.311z" fill="url(#ak)" stroke="#ed1fff" stroke-width=".3185"/>
  <path d="m119.44 151.88s9.176-5.569 7.865-13.255 3.381-14.942 3.381-14.942 2.934-7.112-7.828-11.04-10.16-10.197-17.068-7.478-18.213 8.507-21.013 11.102c-2.799 2.594-12.988 9.838-19.942 11.837s-6.934 17.037-6.934 17.037-1.478 10.093 2.234-0.423c3.713-10.514 5.978-14.592 19.397-21.449s18.597-13.869 27.166-10.029 19.304 7.095 15.979 17.777c-3.326 10.683-7.333 22.469-3.237 20.863z" fill="url(#aj)" stroke="#ed1fff" stroke-width=".3185"/>
  <path d="m73.333 166.39s-1.395 9.475 4.816 9.354 25.688-5.202 28.314-9.193 8.001-4.227 12.661-7.804 4.647-10.507 4.647-10.507-2.753 4.3-12.879 8.905l-10.125 4.605s-20.65 11.281-27.434 4.64z" fill="url(#ai)" stroke="#ed1fff" stroke-width=".3185"/>
  <path d="m93.456 137.55s-11.955 6.905-12.901 1.215c0 1e-3 6.737 0.371 12.901-1.215" fill="url(#ah)" stroke="#ed1fff" stroke-width=".3185"/>
  <path d="m129.82 124.68s9.318 44.749 3.662 58.542c0 0-7.161 7.859-13.888-28.847 0 0 6.923-6.298 7.142-12.232s-1.142-0.769 3.084-17.463z" fill="#bf001b"/>
  <path d="m70.046 165.9s24.638 26.429 32.933 25.797 7.943 6.55-4.639 4.488-45.782-34.249-45.782-34.249l8.314 3.118 9.174 0.846z" fill="#bf001b"/>
  <path d="m73.471 167.98s21.297 36 38.52 28.8 26.019-8.601 12.973-49.792c0 0-3.576 7.802-12.494 14.02s-36.259 16.436-38.999 6.972z" fill="url(#ag)"/>
  <path d="m84.87 196.99" fill="none" stroke="#055f00" stroke-width="1.3"/>
  <path d="m85.27 190.57s5.067-4.365 15.963 0.946c0 0 8.266 2.575 11.042 1.462 0 0-7.683-1.8-8.121-5.357s4.871-8.589 1.009-13.701c0 0 5.533 4.845 10.591 3.996s14.564 1.041 11.357 9.229c0 0 6.35-7.724 4.565-13.376s7.591-8.885 7.591-8.885-3.766 3.961-1.539 11.381-4.598 16.48-4.598 16.48l-18.622 8.516s-14.476-2.787-18.294-4.146c-4.343-1.545-15.152-3.802-16.119-2.506l5.175-4.039z" fill="#055f00"/>
  <path d="m144.72 352.91s67.2 82.935 58.286 169.17l9.63-1.764s7.827-45.398-19.034-102.3-42.658-71.469-42.658-71.469l-6.224 6.365z" fill="#055f00" stroke="#769f00"/>
  <path d="m101.27 332.78s14.718 5.471 34.578-3.9 13.582-1.285 18.36-13.506 4.211-21.867-5.571-23.717c-9.785-1.848-13.736-4.988-21.901-0.934-8.165 4.056-19.837 9.025-19.837 9.025s-11.501 5.155-13.336 10.853-3.818 11.063-0.636 13.313c3.177 2.244 6.623 9.56 8.343 8.866z" fill="#bf001b" stroke="#ed1fff" stroke-width=".2753"/>
  <path d="m121.387,313.949c0,0-14.325,6.011-13.513-1.86s22.62-12.808 22.165-8.962c0,0-9.537.121-14.638,3.62s-4.699,5.778-2.279,6.523 8.265.679 8.265.679z" fill="url(#af)" stroke="#ed1fff" stroke-width=".2753"/>
  <path d="m139.95 295.17s4.306 4.159-3.617 8.513-9.772 9.838-9.772 9.838-1.555 3.935-11.839 3.496c0 0 8.067-1.264 13.23-9.95s-2.619-3.556 11.998-11.897z" fill="url(#ad)" stroke="#ed1fff" stroke-width=".2753"/>
  <path d="m122.12 321.06s11.438 3.562 19.527-5.167 4.111-5.541 10.294-11.487-5.49-6.871-8.168-6.464c-2.675 0.406 6.005 6.189-0.632 11.313-6.634 5.126-5.262 9.166-21.021 11.805z" fill="url(#ac)" stroke="#ed1fff" stroke-width=".2753"/>
  <path d="m115.45,324.046c0,0-12.186-.242-15.204-3.619-3.011-3.376-5.871-5.953-3.604-8.597s4.342-3.046 4.342-3.046-4.003-2.258.625-4.419 17.608-6.978 17.867-7.941c.255-.966 4.937-4.438 13.32-3.807s7.722,3.167 7.915,3.649 2.353-3.486-8.868-2.258-23.997,12.287-23.997,12.287-2.682,1.229-5.628,4.718 2.835,8.764 4.917,9.932 8.315,3.101 8.315,3.101z" fill="url(#ab)" stroke="#ed1fff" stroke-width=".2753"/>
  <path d="m118.98 321.61s-10.522 8.992-19.956 4.909c-9.435-4.085-4.754-8.598-4.754-8.598s-12.313 7.313-9.859 10.198c2.457 2.885 15.308 3.289 16.57 3.494s16.28-2.989 17.999-10.003z" fill="url(#aa)" stroke="#ed1fff" stroke-width=".2753"/>
  <path d="m149.66 321.56s8.896-4.154 7.848-10.201 3.616-11.624 3.616-11.624 2.985-5.502-7.172-8.82-9.42-8.212-16.076-6.237-17.59 6.251-20.326 8.22-12.644 7.41-19.327 8.818-7.059 13.185-7.059 13.185-1.677 7.869 2.14-0.279 6.083-11.292 19.06-16.361c12.974-5.066 18.095-10.439 26.165-7.241s18.217 5.989 14.768 14.278c-3.455 8.288-7.586 17.427-3.637 16.262z" fill="url(#z)" stroke="#ed1fff" stroke-width=".2753"/>
  <path d="m105.32 331.88s-1.582 7.388 4.345 7.433c5.924 0.047 24.628-3.496 27.237-6.563 2.61-3.065 7.742-3.129 12.278-5.823s4.706-8.124 4.706-8.124-2.739 3.307-12.513 6.684l-9.776 3.378s-19.983 8.368-26.277 3.015z" fill="url(#y)" stroke="#ed1fff" stroke-width=".2753"/>
  <path d="m125.269,309.753c0,0-11.583,5.137-12.335.662-.001,0 6.414.44 12.335-.662" fill="url(#x)" stroke="#ed1fff" stroke-width=".2753"/>
  <path d="m160.28 300.49s7.707 35.245 1.951 45.918c0 0-7.034 5.992-12.483-22.898 0 0 6.767-4.777 7.133-9.418 0.363-4.638-1.068-0.627 3.399-13.602z" fill="#bf001b"/>
  <path d="m102.2 331.42s22.795 21.248 30.72 20.938c7.928-0.31 7.403 5.309-4.54 3.412s-42.751-27.847-42.751-27.847l7.847 2.63 8.724 0.867z" fill="#bf001b"/>
  <path d="m105.41 333.12s19.358 28.663 35.971 23.415 25.034-6.147 13.677-38.692c0 0-3.615 6.028-12.283 10.693-8.665 4.67-35.001 12.057-37.365 4.584z" fill="url(#w)"/>
  <path d="m115.52 356.1" fill="none" stroke="#055f00" stroke-width="1.1236"/>
  <path d="m116.07 351.08s4.946-3.304 15.196 1.101c0 0 7.813 2.201 10.489 1.391 0 0-7.276-1.581-7.602-4.375-0.323-2.796 4.87-6.615 1.321-10.706 0 0 5.149 3.918 9.994 3.368 4.846-0.552 13.859 1.141 10.584 7.481 0 0 6.259-5.906 4.705-10.372-1.553-4.464 7.473-6.785 7.473-6.785s-3.695 3.014-1.768 8.876-4.817 12.799-4.817 12.799l-17.979 6.25s-13.728-2.506-17.333-3.657c-4.101-1.308-14.347-3.318-15.303-2.325l5.04-3.046z" fill="#055f00"/>
  <path d="m198.82 576.26s21.616-367.24 61.144-417.63l7.624 7.332s-18.564 36.87-32.324 133.9-25.973 276.4-25.973 276.4h-10.471z" fill="#055f00"/>
  <path d="m274.04 36.173s4.102-20.965-30.347-12.71l-34.448 8.256s-10.326-3.241-13.7 9.807-24.218 16.334-15.598 35.879 12.097 17.951 20.681 22.143 71.69-57.785 73.412-63.375z" fill="url(#v)" stroke="#ed1fff" stroke-width=".49"/>
  <path d="m184.09 85.44s13.918-34.294 30.302-39.707c17.065-5.638 55.173-10.817 59.719-13.051" fill="none" stroke="#ed1fff" stroke-width=".49"/>
  <path d="m210.8 93.49s-23.214 0.516-32.056-7.736-28.138 4.346-27.974 13.646-22.538 54.107 10.335 73.104 70.276 36.575 78.749 28.383 40.861 0.216 40.861 0.216 27.22-1.714 13.66-20.942-66.455-76.752-66.455-76.752-10.404-16.852-17.12-9.919z" fill="url(#u)" stroke="#ed1fff" stroke-width=".49"/>
  <path d="m184.19 89.645s-13.481-1.578-12.658 9.377c0.823 10.954-11.018 49.505 12.935 64.256s77.447 24.15 80.226 23.68 10.727 1.934 12.305-7.95" fill="none" stroke="#ed1fff" stroke-width=".49"/>
  <path d="m240.84 55.993s-17.093-21.895 5.77-22.16 25.388-5.415 25.388-5.415 8.461-7.576 21.809 0.489 32.382 8.715 32.382 8.715 25.607 1.112 28.133 13.583c2.523 12.47 18.465 29.616 18.465 29.616s14.906 16.824 7.824 24.702-12.908 4.758-14.984 4.725-25.154-6.493-25.154-6.493l-17.277-36.233-53.283-8.747c-3e-3 0-26.655 5.267-29.073-2.782z" fill="url(#s)" stroke="#ed1fff" stroke-width=".49"/>
  <path d="m236.37 47.489s8.115-8.44 16.719-5.675 26.977 1.762 27.691 0.643c0.717-1.119 20.945-6.763 33.503 5.5s30.026 4.489 30.909 12.427 20.832 32.497 18.902 33.749 0.986 15.605-4.941 15.079" fill="none" stroke="#ed1fff" stroke-width=".49"/>
  <path d="m260.45 52.179s-10.574-8.228-30.427-2.522-32.809 30.52-28.058 35.449 8.33 34.265 0.457 47.192 39.62 45.762 39.62 45.762 41.617 14.56 35.113-6.91-25.331-48.71-25.331-48.71-17.111-47.13 12.285-62.629l-3.659-7.632z" fill="url(#r)" stroke="#ed1fff" stroke-width=".49"/>
  <path d="m274.98 173.5s-33.962 6.17-39.146-11.991-21.075-20.152-16.993-34.011-4.559-38.612 0.362-47.93 39.132-26.201 41.241-27.39" fill="none" stroke="#ed1fff" stroke-width=".49"/>
  <path d="m366.15 118.99s20.066 1.017 27.555 7.712 41.527 36.704 28.9 44.833-32.352 7.363-39.717 12.027-39.754 13.875-43.654 18.491-42.232-22.569-41.51-32.781 68.426-50.282 68.426-50.282z" fill="url(#q)"/>
  <path d="m311.547,186.903c0,0 27.674.852 49.379-11.042 21.707-11.893 33.547-15.205 33.547-15.205s-.02.925 1.727.284c1.742-.641 12.801.556 11.566-7.065-1.236-7.622-2.629-16.893-2.629-16.893" fill="none" stroke="#ed1fff" stroke-width=".49"/>
  <path d="m354.44 94.9c9.657 3.932 26.879 12.114 22.2 18.881-6.417 9.277-12.161 19.773-11.527 22.66 0.635 2.886-4.054 29.938-22.695 26.877s-24.294 2.814-25.019 4.24l-0.719 1.426s-2.491 3.301-5.628 4.334-5.221 1.304-6.281 2.368-26.263 4.652-30.862-2.901c-1.288-2.117-1.972-4.886-2.22-7.806l1.032 0.077s15.193 7.71 23.752 3.899 30.165-10.531 34.778-16.08c4.608-5.545 17.021-2.751 20.314-11.712s12.071-19.756 12.289-28.438 9.435-4.767-9.503-17.576l0.089-0.249z" fill="url(#p)"/>
  <path d="m354.35,95.149c18.938,12.809 9.721,8.895 9.503,17.576s-8.996,19.482-12.289,28.438-15.706,6.167-20.314,11.712c-4.613,5.549-26.216,12.269-34.778,16.08s-23.752-3.899-23.752-3.899l-1.032-.077c-.647-7.502 1.582-16.002 3.845-16.966 3.144-1.339 57.891-61.709 72.78-55.445 0,0 2.544.872 6.126,2.332l-.089.249z" fill="#bf001b"/>
  <path d="m271.69 164.98c-0.647-7.502 1.582-16.002 3.845-16.966 3.144-1.339 57.891-61.709 72.78-55.445 0 0 2.544 0.872 6.126 2.332 9.657 3.932 26.879 12.114 22.2 18.881-6.417 9.277-12.161 19.773-11.527 22.66 0.635 2.886-4.054 29.938-22.695 26.877s-24.294 2.814-25.019 4.24l-0.719 1.426s-2.491 3.301-5.628 4.334-5.221 1.304-6.281 2.368-26.263 4.652-30.862-2.901c-1.289-2.118-1.972-4.887-2.22-7.806z" fill="none" stroke="#ed1fff" stroke-width=".49"/>
  <path d="m272.72 165.06s15.193 7.71 23.752 3.899 30.165-10.531 34.778-16.08c4.608-5.545 17.021-2.751 20.314-11.712s12.071-19.756 12.289-28.438 9.435-4.767-9.503-17.576" fill="none" stroke="#ed1fff" stroke-width=".49"/>
  <path d="m249.29 122.02s13.582 26.821 43.76 28.888 17.014 11.849 31.324-7.946 20.463-40.044 10.17-54.229c-10.295-14.185-12.76-24.791-25.309-25.228s-29.908-2.751-29.908-2.751-17.285-1.75-23.491 7.896-12.353 18.465-10.172 26.429 1.093 26.526 3.626 26.941z" fill="#bf001b" stroke="#ed1fff" stroke-width=".49"/>
  <path d="m286.47 105.11s-21.239-3.023-14.707-18.179 35.883-1.993 32.621 5.354c0 0-11.395-9.907-19.918-8.215-8.525 1.691-9.663 6.76-7.32 10.854s9.324 10.186 9.324 10.186z" fill="url(#o)" stroke="#ed1fff" stroke-width=".49"/>
  <path d="m321.76 86.639s2.166 13.055-10.311 13.48-18.544 9.629-18.544 9.629-4.628 6.353-16.515-5.491c0 0 10.461 6.02 22.727-6.174s-0.591-10.027 22.643-11.444z" fill="url(#n)" stroke="#ed1fff" stroke-width=".49"/>
  <path d="m282.31 120.37s11.046 19.434 26.812 10.274c15.764-9.159 8.793-6.901 20.332-12.427s-1.65-19.837-5.111-21.86 2.742 18.999-8.752 22.366c-11.496 3.369-12.726 13.058-33.281 1.647z" fill="url(#m)" stroke="#ed1fff" stroke-width=".49"/>
  <path d="m272.29 119.35s-14.28-13.473-15.467-23.559-2.755-18.381 1.805-21.343 7.305-1.583 7.305-1.583-3.15-8.863 3.869-8.329 25.814 4.546 26.802 2.854c0.984-1.693 8.993-3.779 18.487 6.435 9.496 10.214 6.92 14.671 6.805 15.862-0.113 1.191 5.256-4.595-8.918-14.045s-37.146-0.534-37.146-0.534-4.049-0.355-10.015 3.611-2.836 20.864-1.194 25.461 7.667 15.17 7.667 15.17z" fill="url(#l)" stroke="#ed1fff" stroke-width=".49"/>
  <path d="m278.2 118.15s-18.841 7.107-27.138-11.256 0.444-22.568 0.444-22.568-19.775 1.775-18.904 10.265 15.825 23 17.174 24.767 21.425 11.244 28.424-1.208z" fill="url(#k)" stroke="#ed1fff" stroke-width=".49"/>
  <path d="m314.61 150.72s13.486 1.016 16.521-12.416 12.512-19.816 12.512-19.816 7.43-8.027-2.266-25.601-5.361-26.754-14.652-29.825-25.279-6.005-29.918-4.911-20.233 1.625-29.154-2.622-17.697 19.327-17.697 19.327-7.553 14.241 2.738 1.711 15.201-16.514 34.171-13.016 28.843-1.988 36.147 13.121 17.369 31.6 7.412 44.803-21.319 27.414-15.814 29.245z" fill="url(#j)" stroke="#ed1fff" stroke-width=".49"/>
  <path d="m254.74 124.5s-7.098 13.364-0.105 19.767 31.68 19.11 36.943 15.647 11.391 1.87 18.677 1.211 11.327-11.524 11.327-11.524-5.584 3.812-19.566 0.281l-13.98-3.532s-29.618-4.244-33.296-21.85z" fill="url(#h)" stroke="#ed1fff" stroke-width=".49"/>
  <path d="m294.04 100.7s-17.366-1.871-15.094-11.786c0 0 7.295 7.729 15.094 11.786" fill="url(#g)" stroke="#ed1fff" stroke-width=".49"/>
 </g>
</svg>
